<?xml version="1.0" encoding="UTF-8"?>
<svg xmlns="http://www.w3.org/2000/svg" xmlns:serif="http://www.serif.com/" version="1.1" viewBox="0 0 400 400">
  <!-- Generator: Adobe Illustrator 29.5.1, SVG Export Plug-In . SVG Version: 2.1.0 Build 141)  -->
  <defs>
    <style>
      .st0, .st1, .st2 {
        fill-rule: evenodd;
      }

      .st0, .st1, .st2, .st3 {
        fill: #fff;
      }

      .st1 {
        fill-opacity: 0;
      }

      .st1, .st2, .st3 {
        stroke: #ca1717;
        stroke-linecap: round;
        stroke-linejoin: round;
        stroke-width: 19.54px;
      }
    </style>
  </defs>
  <g id="Layer_3">
    <path class="st0" d="M286.96,76.41c29.83-43.85-18.08-48.58-27.71-49.13-24.9-1.44-78.75,6.57-84.2,9.32C90.46,79.33,12.16,127.1,10.69,177.81c-1.11,38.14,19.01,154.49,119.38,77.47,9.17-7.04,47.37,15.29,73.22-11.38,16.41-16.93,11.73-31.95,31.03-79.63,24.56-60.64,41.51-71.49,52.65-87.86Z"/>
    <path class="st0" d="M398.67,177.81c.14-15.39-18.2-23.13-27.08-26.88-22.98-9.7-45.67-2.81-51.52-1.08C224.32,178.28,0,169.23,17.02,250.34c7.84,37.34,53.66,108.99,118.03,126.07,11.17,2.96,96.9-7.37,130.2-23.84,21.14-10.45,42.06-14.64,76.22-53.09,43.46-48.9,57.01-101.87,57.2-121.67Z"/>
    <path class="st0" d="M259.32,164.17c-.89,17.27,7.79,30.5,10.01,33.91,36.25,55.96,34.07,98.85,60.04,101.3,23.41,2.21,49.49-30.34,57.03-56.66,2.19-7.63,9.42-32.85-7-50.78-10.43-11.38-19.67-8.13-49.03-21.52-37.33-17.03-70.7-12.92-71.04-6.24Z"/>
  </g>
  <g id="Layer_1">
    <path class="st1" d="M293.79,42.26s.98-18.46-10.01-19.61c-11-1.15-33.67-3.83-71.55,4.26-37.87,8.09-68.8,18.87-105.76,41.63-46.94,28.91-61.37,52.2-61.37,52.2,0,0-23.16,27.74-30.41,64.51-7.25,36.77-6.5,64.63,2.28,93.1,8.78,28.48,35,56.26,52.46,69.56,17.47,13.3,42.22,23.87,55.3,26.67,25.71,5.5,57.57,4.83,92.74,1.11,15.52-1.64,50.65-12.34,67.35-21.48,16.7-9.13,51.6-33.3,76.68-70.2,20.22-29.74,27.45-62.65,28.16-73.71.7-11.05-.49-30.29-1.79-37.55-2.71-15.06-11.54-25.94-17.93-28.61-13.39-5.59-28.42-2.28-61.79,7.65-58.28,17.34-81.25,24.5-81.25,24.5,0,0-6.66,1.62,3.04-7.75,9.7-9.36,30.59-38.45,40.11-55.56,9.52-17.1,13.84-24.81,18.79-43.1,5.33-19.72,4.94-27.63,4.94-27.63h.01Z"/>
    <path class="st3" d="M48.3,180.25s-9.83,21.65-5.77,58.42c3.25,29.4,15.61,42.34,28.37,58.25,8.78,10.95,28.87,31.74,59.53,40.22,25.49,7.05,78.79,6.25,106.44-6.11,46.08-20.6,71.5-40.62,85.49-62.64,2.5-3.93,4.47-7.91,6.02-11.92,8.12-21.02,12.21-32.19,11.7-50.55-.41-14.88-3.94-20.91,4.94-24.75,5.74-2.49,12.21,2.1,12.49,3.1,2.98,10.66,2.16,11.78,2.16,11.78"/>
    <path class="st3" d="M77.93,134.83s-4.84,5.55-8.49,10.93c-2.8,4.13-4.86,7.42-6.01,10.06"/>
    <path class="st3" d="M126.79,149.58s-23.62,17.68-25.09,31.92c-.95,9.26,3,15.6,9.47,17.3,18.91,4.95,69.46-10.03,69.46-10.03l44.58-12.23"/>
    <path class="st2" d="M228.97,134.83c12.09-23.96,24.19-47.93,36.28-71.89"/>
    <path class="st0" d="M398.67,177.81"/>
  </g>
</svg>